# xmcd CD database file
#
# Track frame offsets:
#	150
#	20800
#	39413
#	54625
#	69703
#	85278
#	98860
#	115920
#	129037
#	140751
#	160288
#	172800
#	186313
#	207450
#	220283
#
# Disc length: 3101 seconds
#
# Revision: 0
# Processed by: cddbd v1.5.1PL0 Copyright (c) Steve Scherf et al.
# Submitted via: CDex 1.51
#
DISCID=dd0c1b0f
DTITLE=Dolly Parton - The River Unbroken
DYEAR=1993
DGENRE=Country
TTITLE0=The River Unbroken
TTITLE1=Red Hot Screaming Love
TTITLE2=Two Lovers
TTITLE3=Could I Have Your Autograph
TTITLE4=Country Road
TTITLE5=Wait 'Til IM Get You Home
TTITLE6=Family
TTITLE7=Time For Me To Fly
TTITLE8=Why'd You Come In Here Lookin' Like That
TTITLE9=White Limozeen
TTITLE10=If You Need Me
TTITLE11=Runaway Feelin'
TTITLE12=He's Alive
TTITLE13=Go Tell It On The Mountain
TTITLE14=We Three Kings
EXTD=YEAR: 1993
EXTT0=
EXTT1=
EXTT2=
EXTT3=
EXTT4=
EXTT5=
EXTT6=
EXTT7=
EXTT8=
EXTT9=
EXTT10=
EXTT11=
EXTT12=
EXTT13=
EXTT14=
PLAYORDER=
